<svg xmlns="http://www.w3.org/2000/svg" xmlns:xlink="http://www.w3.org/1999/xlink" width="424" zoomAndPan="magnify" viewBox="0 0 318 98.999996" height="132" preserveAspectRatio="xMidYMid meet" version="1.2"><defs><clipPath id="b8a411f7b3"><path d="M 49 49 L 89.25 49 L 89.25 78 L 49 78 Z M 49 49 "/></clipPath><clipPath id="0eb8d2e51a"><path d="M 36 17.625 L 89 17.625 L 89 63 L 36 63 Z M 36 17.625 "/></clipPath></defs><g id="59594c65fe"><g clip-rule="nonzero" clip-path="url(#b8a411f7b3)"><path style=" stroke:none;fill-rule:evenodd;fill:#ffc107;fill-opacity:1;" d="M 49.394531 77.605469 L 69.898438 49.578125 L 89.171875 49.578125 L 68.667969 77.605469 Z M 49.394531 77.605469 "/></g><g clip-rule="nonzero" clip-path="url(#0eb8d2e51a)"><path style=" stroke:none;fill-rule:evenodd;fill:#ffc107;fill-opacity:1;" d="M 88.15625 17.625 L 55.507812 62.472656 L 36.234375 62.472656 L 68.882812 17.625 Z M 88.15625 17.625 "/></g><path style=" stroke:none;fill-rule:evenodd;fill:#6c757d;fill-opacity:1;" d="M 39.796875 34.015625 L 19.292969 62.046875 L 0.0195312 62.046875 L 20.523438 34.015625 Z M 39.796875 34.015625 "/><path style=" stroke:none;fill-rule:evenodd;fill:#6c757d;fill-opacity:1;" d="M 1.035156 93.996094 L 33.6875 49.148438 L 52.957031 49.148438 L 20.308594 93.996094 Z M 1.035156 93.996094 "/><g style="fill:#0d1b2a;fill-opacity:1;"><g transform="translate(99.999997, 64.405635)"><path style="stroke:none" d="M 3.171875 0 L 3.171875 -36.53125 L 17.796875 -36.53125 C 21.828125 -36.53125 24.859375 -35.648438 26.890625 -33.890625 C 28.921875 -32.140625 29.9375 -29.898438 29.9375 -27.171875 C 29.9375 -25.015625 29.3125 -23.273438 28.0625 -21.953125 C 26.8125 -20.628906 25.234375 -19.75 23.328125 -19.3125 L 23.328125 -18.96875 C 24.722656 -18.90625 26.03125 -18.507812 27.25 -17.78125 C 28.46875 -17.0625 29.457031 -16.050781 30.21875 -14.75 C 30.976562 -13.457031 31.359375 -11.90625 31.359375 -10.09375 C 31.359375 -8.15625 30.878906 -6.425781 29.921875 -4.90625 C 28.960938 -3.382812 27.550781 -2.1875 25.6875 -1.3125 C 23.820312 -0.4375 21.519531 0 18.78125 0 Z M 10.90625 -6.3125 L 17.203125 -6.3125 C 19.359375 -6.3125 20.925781 -6.726562 21.90625 -7.5625 C 22.894531 -8.394531 23.390625 -9.492188 23.390625 -10.859375 C 23.390625 -12.367188 22.847656 -13.601562 21.765625 -14.5625 C 20.691406 -15.53125 19.226562 -16.015625 17.375 -16.015625 L 10.90625 -16.015625 Z M 10.90625 -21.25 L 16.625 -21.25 C 18.207031 -21.25 19.519531 -21.660156 20.5625 -22.484375 C 21.613281 -23.304688 22.140625 -24.441406 22.140625 -25.890625 C 22.140625 -27.203125 21.671875 -28.265625 20.734375 -29.078125 C 19.804688 -29.890625 18.484375 -30.296875 16.765625 -30.296875 L 10.90625 -30.296875 Z M 10.90625 -21.25 "/></g></g><g style="fill:#0d1b2a;fill-opacity:1;"><g transform="translate(133.194139, 64.405635)"><path style="stroke:none" d="M 9.46875 0 L 1.1875 0 L 13.8125 -36.53125 L 23.765625 -36.53125 L 36.359375 0 L 28.078125 0 L 25.359375 -8.328125 L 12.1875 -8.328125 Z M 14.140625 -14.359375 L 23.421875 -14.359375 L 18.921875 -28.1875 L 18.640625 -28.1875 Z M 14.140625 -14.359375 "/></g></g><g style="fill:#0d1b2a;fill-opacity:1;"><g transform="translate(170.758279, 64.405635)"><path style="stroke:none" d="M 3.171875 0 L 3.171875 -36.53125 L 10.90625 -36.53125 L 10.90625 -6.375 L 26.5625 -6.375 L 26.5625 0 Z M 3.171875 0 "/></g></g><g style="fill:#0d1b2a;fill-opacity:1;"><g transform="translate(199.261372, 64.405635)"><path style="stroke:none" d="M 3.171875 0 L 3.171875 -36.53125 L 27.796875 -36.53125 L 27.796875 -30.171875 L 10.90625 -30.171875 L 10.90625 -21.453125 L 26.53125 -21.453125 L 26.53125 -15.09375 L 10.90625 -15.09375 L 10.90625 -6.375 L 27.859375 -6.375 L 27.859375 0 Z M 3.171875 0 "/></g></g><g style="fill:#0d1b2a;fill-opacity:1;"><g transform="translate(230.029729, 64.405635)"><path style="stroke:none" d="M 1.78125 -30.171875 L 1.78125 -36.53125 L 31.78125 -36.53125 L 31.78125 -30.171875 L 20.609375 -30.171875 L 20.609375 0 L 12.96875 0 L 12.96875 -30.171875 Z M 1.78125 -30.171875 "/></g></g><g style="fill:#0d1b2a;fill-opacity:1;"><g transform="translate(263.598443, 64.405635)"><path style="stroke:none" d="M 1.03125 -36.53125 L 9.6875 -36.53125 L 18.015625 -20.796875 L 18.375 -20.796875 L 26.703125 -36.53125 L 35.359375 -36.53125 L 22.03125 -12.921875 L 22.03125 0 L 14.359375 0 L 14.359375 -12.921875 Z M 1.03125 -36.53125 "/></g></g><g style="fill:#6c757d;fill-opacity:1;"><g transform="translate(101.642907, 90.086474)"><path style="stroke:none" d="M 4.5625 0 L 0.90625 0 L 0.90625 -10.359375 L 4.59375 -10.359375 C 5.632812 -10.359375 6.53125 -10.148438 7.28125 -9.734375 C 8.039062 -9.316406 8.625 -8.722656 9.03125 -7.953125 C 9.4375 -7.179688 9.640625 -6.257812 9.640625 -5.1875 C 9.640625 -4.101562 9.4375 -3.175781 9.03125 -2.40625 C 8.625 -1.632812 8.039062 -1.039062 7.28125 -0.625 C 6.519531 -0.207031 5.613281 0 4.5625 0 Z M 3.09375 -1.875 L 4.484375 -1.875 C 5.453125 -1.875 6.1875 -2.132812 6.6875 -2.65625 C 7.195312 -3.1875 7.453125 -4.03125 7.453125 -5.1875 C 7.453125 -6.332031 7.195312 -7.164062 6.6875 -7.6875 C 6.1875 -8.21875 5.453125 -8.484375 4.484375 -8.484375 L 3.09375 -8.484375 Z M 3.09375 -1.875 "/></g></g><g style="fill:#6c757d;fill-opacity:1;"><g transform="translate(111.99326, 90.086474)"><path style="stroke:none" d="M 3.09375 -10.359375 L 3.09375 0 L 0.90625 0 L 0.90625 -10.359375 Z M 3.09375 -10.359375 "/></g></g><g style="fill:#6c757d;fill-opacity:1;"><g transform="translate(115.98583, 90.086474)"><path style="stroke:none" d="M 6.515625 -7.375 C 6.472656 -7.78125 6.296875 -8.09375 5.984375 -8.3125 C 5.679688 -8.539062 5.269531 -8.65625 4.75 -8.65625 C 4.207031 -8.65625 3.789062 -8.546875 3.5 -8.328125 C 3.21875 -8.109375 3.078125 -7.832031 3.078125 -7.5 C 3.078125 -7.132812 3.238281 -6.851562 3.5625 -6.65625 C 3.882812 -6.46875 4.269531 -6.320312 4.71875 -6.21875 L 5.65625 -6 C 6.25 -5.863281 6.78125 -5.664062 7.25 -5.40625 C 7.71875 -5.15625 8.082031 -4.828125 8.34375 -4.421875 C 8.613281 -4.023438 8.75 -3.535156 8.75 -2.953125 C 8.75 -2.003906 8.394531 -1.25 7.6875 -0.6875 C 6.976562 -0.132812 5.992188 0.140625 4.734375 0.140625 C 3.472656 0.140625 2.46875 -0.144531 1.71875 -0.71875 C 0.976562 -1.289062 0.59375 -2.132812 0.5625 -3.25 L 2.6875 -3.25 C 2.71875 -2.726562 2.921875 -2.335938 3.296875 -2.078125 C 3.671875 -1.816406 4.144531 -1.6875 4.71875 -1.6875 C 5.269531 -1.6875 5.710938 -1.800781 6.046875 -2.03125 C 6.378906 -2.269531 6.546875 -2.582031 6.546875 -2.96875 C 6.546875 -3.3125 6.390625 -3.578125 6.078125 -3.765625 C 5.773438 -3.953125 5.34375 -4.113281 4.78125 -4.25 L 3.65625 -4.546875 C 2.78125 -4.753906 2.085938 -5.082031 1.578125 -5.53125 C 1.078125 -5.988281 0.832031 -6.597656 0.84375 -7.359375 C 0.832031 -7.984375 0.992188 -8.53125 1.328125 -9 C 1.671875 -9.46875 2.140625 -9.832031 2.734375 -10.09375 C 3.328125 -10.363281 4.003906 -10.5 4.765625 -10.5 C 5.523438 -10.5 6.191406 -10.363281 6.765625 -10.09375 C 7.347656 -9.832031 7.796875 -9.46875 8.109375 -9 C 8.429688 -8.53125 8.597656 -7.988281 8.609375 -7.375 Z M 6.515625 -7.375 "/></g></g><g style="fill:#6c757d;fill-opacity:1;"><g transform="translate(125.305195, 90.086474)"><path style="stroke:none" d="M 0.5 -8.546875 L 0.5 -10.359375 L 9 -10.359375 L 9 -8.546875 L 5.84375 -8.546875 L 5.84375 0 L 3.671875 0 L 3.671875 -8.546875 Z M 0.5 -8.546875 "/></g></g><g style="fill:#6c757d;fill-opacity:1;"><g transform="translate(134.816599, 90.086474)"><path style="stroke:none" d="M 0.90625 0 L 0.90625 -10.359375 L 4.984375 -10.359375 C 6.160156 -10.359375 7.070312 -10.050781 7.71875 -9.4375 C 8.363281 -8.820312 8.6875 -8 8.6875 -6.96875 C 8.6875 -6.257812 8.53125 -5.65625 8.21875 -5.15625 C 7.90625 -4.65625 7.453125 -4.28125 6.859375 -4.03125 L 9.0625 0 L 6.640625 0 L 4.6875 -3.671875 L 3.09375 -3.671875 L 3.09375 0 Z M 3.09375 -5.421875 L 4.578125 -5.421875 C 5.816406 -5.421875 6.4375 -5.9375 6.4375 -6.96875 C 6.4375 -8.03125 5.8125 -8.5625 4.5625 -8.5625 L 3.09375 -8.5625 Z M 3.09375 -5.421875 "/></g></g><g style="fill:#6c757d;fill-opacity:1;"><g transform="translate(144.156175, 90.086474)"><path style="stroke:none" d="M 3.09375 -10.359375 L 3.09375 0 L 0.90625 0 L 0.90625 -10.359375 Z M 3.09375 -10.359375 "/></g></g><g style="fill:#6c757d;fill-opacity:1;"><g transform="translate(148.148744, 90.086474)"><path style="stroke:none" d="M 0.90625 0 L 0.90625 -10.359375 L 5.046875 -10.359375 C 6.191406 -10.359375 7.050781 -10.109375 7.625 -9.609375 C 8.195312 -9.109375 8.484375 -8.472656 8.484375 -7.703125 C 8.484375 -7.085938 8.304688 -6.59375 7.953125 -6.21875 C 7.597656 -5.84375 7.148438 -5.59375 6.609375 -5.46875 L 6.609375 -5.375 C 7.003906 -5.351562 7.375 -5.238281 7.71875 -5.03125 C 8.0625 -4.832031 8.34375 -4.546875 8.5625 -4.171875 C 8.78125 -3.804688 8.890625 -3.367188 8.890625 -2.859375 C 8.890625 -2.304688 8.753906 -1.816406 8.484375 -1.390625 C 8.210938 -0.960938 7.8125 -0.625 7.28125 -0.375 C 6.75 -0.125 6.097656 0 5.328125 0 Z M 3.09375 -1.796875 L 4.875 -1.796875 C 5.488281 -1.796875 5.929688 -1.910156 6.203125 -2.140625 C 6.484375 -2.378906 6.625 -2.691406 6.625 -3.078125 C 6.625 -3.503906 6.472656 -3.851562 6.171875 -4.125 C 5.867188 -4.40625 5.453125 -4.546875 4.921875 -4.546875 L 3.09375 -4.546875 Z M 3.09375 -6.015625 L 4.71875 -6.015625 C 5.164062 -6.015625 5.535156 -6.128906 5.828125 -6.359375 C 6.117188 -6.597656 6.265625 -6.921875 6.265625 -7.328125 C 6.265625 -7.703125 6.132812 -8.003906 5.875 -8.234375 C 5.613281 -8.460938 5.238281 -8.578125 4.75 -8.578125 L 3.09375 -8.578125 Z M 3.09375 -6.015625 "/></g></g><g style="fill:#6c757d;fill-opacity:1;"><g transform="translate(157.554024, 90.086474)"><path style="stroke:none" d="M 7.3125 -10.359375 L 9.484375 -10.359375 L 9.484375 -3.515625 C 9.484375 -2.722656 9.296875 -2.054688 8.921875 -1.515625 C 8.554688 -0.972656 8.050781 -0.5625 7.40625 -0.28125 C 6.757812 0 6.019531 0.140625 5.1875 0.140625 C 4.351562 0.140625 3.613281 0 2.96875 -0.28125 C 2.320312 -0.5625 1.816406 -0.972656 1.453125 -1.515625 C 1.085938 -2.054688 0.90625 -2.722656 0.90625 -3.515625 L 0.90625 -10.359375 L 3.09375 -10.359375 L 3.09375 -3.578125 C 3.09375 -3.023438 3.289062 -2.585938 3.6875 -2.265625 C 4.082031 -1.953125 4.582031 -1.796875 5.1875 -1.796875 C 5.800781 -1.796875 6.304688 -1.953125 6.703125 -2.265625 C 7.109375 -2.585938 7.3125 -3.023438 7.3125 -3.578125 Z M 7.3125 -10.359375 "/></g></g><g style="fill:#6c757d;fill-opacity:1;"><g transform="translate(167.934699, 90.086474)"><path style="stroke:none" d="M 10.03125 -6.734375 L 7.8125 -6.734375 C 7.726562 -7.296875 7.484375 -7.738281 7.078125 -8.0625 C 6.679688 -8.394531 6.1875 -8.5625 5.59375 -8.5625 C 4.789062 -8.5625 4.144531 -8.265625 3.65625 -7.671875 C 3.175781 -7.085938 2.9375 -6.253906 2.9375 -5.171875 C 2.9375 -4.066406 3.175781 -3.226562 3.65625 -2.65625 C 4.144531 -2.082031 4.785156 -1.796875 5.578125 -1.796875 C 6.160156 -1.796875 6.648438 -1.945312 7.046875 -2.25 C 7.453125 -2.550781 7.707031 -2.976562 7.8125 -3.53125 L 10.03125 -3.53125 C 9.957031 -2.894531 9.734375 -2.296875 9.359375 -1.734375 C 8.984375 -1.179688 8.472656 -0.726562 7.828125 -0.375 C 7.191406 -0.03125 6.429688 0.140625 5.546875 0.140625 C 4.617188 0.140625 3.789062 -0.0664062 3.0625 -0.484375 C 2.332031 -0.898438 1.757812 -1.503906 1.34375 -2.296875 C 0.925781 -3.085938 0.71875 -4.046875 0.71875 -5.171875 C 0.71875 -6.304688 0.925781 -7.269531 1.34375 -8.0625 C 1.769531 -8.851562 2.347656 -9.457031 3.078125 -9.875 C 3.804688 -10.289062 4.628906 -10.5 5.546875 -10.5 C 6.335938 -10.5 7.050781 -10.347656 7.6875 -10.046875 C 8.332031 -9.753906 8.859375 -9.328125 9.265625 -8.765625 C 9.679688 -8.203125 9.9375 -7.523438 10.03125 -6.734375 Z M 10.03125 -6.734375 "/></g></g><g style="fill:#6c757d;fill-opacity:1;"><g transform="translate(178.638822, 90.086474)"><path style="stroke:none" d="M 3.09375 -10.359375 L 3.09375 0 L 0.90625 0 L 0.90625 -10.359375 Z M 3.09375 -10.359375 "/></g></g><g style="fill:#6c757d;fill-opacity:1;"><g transform="translate(182.631391, 90.086474)"><path style="stroke:none" d="M 10.40625 -5.171875 C 10.40625 -4.046875 10.191406 -3.085938 9.765625 -2.296875 C 9.347656 -1.503906 8.769531 -0.898438 8.03125 -0.484375 C 7.300781 -0.0664062 6.476562 0.140625 5.5625 0.140625 C 4.644531 0.140625 3.816406 -0.0664062 3.078125 -0.484375 C 2.347656 -0.898438 1.769531 -1.503906 1.34375 -2.296875 C 0.925781 -3.097656 0.71875 -4.054688 0.71875 -5.171875 C 0.71875 -6.304688 0.925781 -7.269531 1.34375 -8.0625 C 1.769531 -8.851562 2.347656 -9.457031 3.078125 -9.875 C 3.816406 -10.289062 4.644531 -10.5 5.5625 -10.5 C 6.476562 -10.5 7.300781 -10.289062 8.03125 -9.875 C 8.769531 -9.457031 9.347656 -8.851562 9.765625 -8.0625 C 10.191406 -7.269531 10.40625 -6.304688 10.40625 -5.171875 Z M 8.1875 -5.171875 C 8.1875 -6.273438 7.945312 -7.113281 7.46875 -7.6875 C 7 -8.269531 6.363281 -8.5625 5.5625 -8.5625 C 4.769531 -8.5625 4.132812 -8.269531 3.65625 -7.6875 C 3.175781 -7.113281 2.9375 -6.273438 2.9375 -5.171875 C 2.9375 -4.078125 3.175781 -3.238281 3.65625 -2.65625 C 4.132812 -2.082031 4.769531 -1.796875 5.5625 -1.796875 C 6.363281 -1.796875 7 -2.082031 7.46875 -2.65625 C 7.945312 -3.238281 8.1875 -4.078125 8.1875 -5.171875 Z M 4.78125 -11.359375 L 5.859375 -13.65625 L 7.84375 -13.65625 L 6.3125 -11.359375 Z M 4.78125 -11.359375 "/></g></g><g style="fill:#6c757d;fill-opacity:1;"><g transform="translate(193.760038, 90.086474)"><path style="stroke:none" d="M 9.5625 -10.359375 L 9.5625 0 L 7.671875 0 L 3.171875 -6.515625 L 3.09375 -6.515625 L 3.09375 0 L 0.90625 0 L 0.90625 -10.359375 L 2.828125 -10.359375 L 7.28125 -3.84375 L 7.375 -3.84375 L 7.375 -10.359375 Z M 9.5625 -10.359375 "/></g></g><g style="fill:#6c757d;fill-opacity:1;"><g transform="translate(204.221578, 90.086474)"><path style="stroke:none" d=""/></g></g><g style="fill:#6c757d;fill-opacity:1;"><g transform="translate(207.521769, 90.086474)"><path style="stroke:none" d="M 0.296875 -10.359375 L 2.75 -10.359375 L 5.109375 -5.890625 L 5.203125 -5.890625 L 7.5625 -10.359375 L 10.015625 -10.359375 L 6.25 -3.65625 L 6.25 0 L 4.0625 0 L 4.0625 -3.65625 Z M 0.296875 -10.359375 "/></g></g><g style="fill:#6c757d;fill-opacity:1;"><g transform="translate(217.83169, 90.086474)"><path style="stroke:none" d=""/></g></g><g style="fill:#6c757d;fill-opacity:1;"><g transform="translate(221.13188, 90.086474)"><path style="stroke:none" d="M 10.03125 -6.734375 L 7.8125 -6.734375 C 7.726562 -7.296875 7.484375 -7.738281 7.078125 -8.0625 C 6.679688 -8.394531 6.1875 -8.5625 5.59375 -8.5625 C 4.789062 -8.5625 4.144531 -8.265625 3.65625 -7.671875 C 3.175781 -7.085938 2.9375 -6.253906 2.9375 -5.171875 C 2.9375 -4.066406 3.175781 -3.226562 3.65625 -2.65625 C 4.144531 -2.082031 4.785156 -1.796875 5.578125 -1.796875 C 6.160156 -1.796875 6.648438 -1.945312 7.046875 -2.25 C 7.453125 -2.550781 7.707031 -2.976562 7.8125 -3.53125 L 10.03125 -3.53125 C 9.957031 -2.894531 9.734375 -2.296875 9.359375 -1.734375 C 8.984375 -1.179688 8.472656 -0.726562 7.828125 -0.375 C 7.191406 -0.03125 6.429688 0.140625 5.546875 0.140625 C 4.617188 0.140625 3.789062 -0.0664062 3.0625 -0.484375 C 2.332031 -0.898438 1.757812 -1.503906 1.34375 -2.296875 C 0.925781 -3.085938 0.71875 -4.046875 0.71875 -5.171875 C 0.71875 -6.304688 0.925781 -7.269531 1.34375 -8.0625 C 1.769531 -8.851562 2.347656 -9.457031 3.078125 -9.875 C 3.804688 -10.289062 4.628906 -10.5 5.546875 -10.5 C 6.335938 -10.5 7.050781 -10.347656 7.6875 -10.046875 C 8.332031 -9.753906 8.859375 -9.328125 9.265625 -8.765625 C 9.679688 -8.203125 9.9375 -7.523438 10.03125 -6.734375 Z M 10.03125 -6.734375 "/></g></g><g style="fill:#6c757d;fill-opacity:1;"><g transform="translate(231.836003, 90.086474)"><path style="stroke:none" d="M 10.40625 -5.171875 C 10.40625 -4.046875 10.191406 -3.085938 9.765625 -2.296875 C 9.347656 -1.503906 8.769531 -0.898438 8.03125 -0.484375 C 7.300781 -0.0664062 6.476562 0.140625 5.5625 0.140625 C 4.644531 0.140625 3.816406 -0.0664062 3.078125 -0.484375 C 2.347656 -0.898438 1.769531 -1.503906 1.34375 -2.296875 C 0.925781 -3.097656 0.71875 -4.054688 0.71875 -5.171875 C 0.71875 -6.304688 0.925781 -7.269531 1.34375 -8.0625 C 1.769531 -8.851562 2.347656 -9.457031 3.078125 -9.875 C 3.816406 -10.289062 4.644531 -10.5 5.5625 -10.5 C 6.476562 -10.5 7.300781 -10.289062 8.03125 -9.875 C 8.769531 -9.457031 9.347656 -8.851562 9.765625 -8.0625 C 10.191406 -7.269531 10.40625 -6.304688 10.40625 -5.171875 Z M 8.1875 -5.171875 C 8.1875 -6.273438 7.945312 -7.113281 7.46875 -7.6875 C 7 -8.269531 6.363281 -8.5625 5.5625 -8.5625 C 4.769531 -8.5625 4.132812 -8.269531 3.65625 -7.6875 C 3.175781 -7.113281 2.9375 -6.273438 2.9375 -5.171875 C 2.9375 -4.078125 3.175781 -3.238281 3.65625 -2.65625 C 4.132812 -2.082031 4.769531 -1.796875 5.5625 -1.796875 C 6.363281 -1.796875 7 -2.082031 7.46875 -2.65625 C 7.945312 -3.238281 8.1875 -4.078125 8.1875 -5.171875 Z M 8.1875 -5.171875 "/></g></g><g style="fill:#6c757d;fill-opacity:1;"><g transform="translate(242.96465, 90.086474)"><path style="stroke:none" d="M 0.90625 -10.359375 L 3.59375 -10.359375 L 6.453125 -3.390625 L 6.578125 -3.390625 L 9.421875 -10.359375 L 12.125 -10.359375 L 12.125 0 L 10 0 L 10 -6.734375 L 9.90625 -6.734375 L 7.234375 -0.046875 L 5.78125 -0.046875 L 3.109375 -6.765625 L 3.015625 -6.765625 L 3.015625 0 L 0.90625 0 Z M 0.90625 -10.359375 "/></g></g><g style="fill:#6c757d;fill-opacity:1;"><g transform="translate(256.114854, 90.086474)"><path style="stroke:none" d="M 0.90625 0 L 0.90625 -10.359375 L 7.875 -10.359375 L 7.875 -8.546875 L 3.09375 -8.546875 L 3.09375 -6.078125 L 7.515625 -6.078125 L 7.515625 -4.28125 L 3.09375 -4.28125 L 3.09375 -1.796875 L 7.890625 -1.796875 L 7.890625 0 Z M 0.90625 0 "/></g></g><g style="fill:#6c757d;fill-opacity:1;"><g transform="translate(264.832804, 90.086474)"><path style="stroke:none" d="M 0.90625 0 L 0.90625 -10.359375 L 4.984375 -10.359375 C 6.160156 -10.359375 7.070312 -10.050781 7.71875 -9.4375 C 8.363281 -8.820312 8.6875 -8 8.6875 -6.96875 C 8.6875 -6.257812 8.53125 -5.65625 8.21875 -5.15625 C 7.90625 -4.65625 7.453125 -4.28125 6.859375 -4.03125 L 9.0625 0 L 6.640625 0 L 4.6875 -3.671875 L 3.09375 -3.671875 L 3.09375 0 Z M 3.09375 -5.421875 L 4.578125 -5.421875 C 5.816406 -5.421875 6.4375 -5.9375 6.4375 -6.96875 C 6.4375 -8.03125 5.8125 -8.5625 4.5625 -8.5625 L 3.09375 -8.5625 Z M 3.09375 -5.421875 "/></g></g><g style="fill:#6c757d;fill-opacity:1;"><g transform="translate(274.172379, 90.086474)"><path style="stroke:none" d="M 10.03125 -6.734375 L 7.8125 -6.734375 C 7.726562 -7.296875 7.484375 -7.738281 7.078125 -8.0625 C 6.679688 -8.394531 6.1875 -8.5625 5.59375 -8.5625 C 4.789062 -8.5625 4.144531 -8.265625 3.65625 -7.671875 C 3.175781 -7.085938 2.9375 -6.253906 2.9375 -5.171875 C 2.9375 -4.066406 3.175781 -3.226562 3.65625 -2.65625 C 4.144531 -2.082031 4.785156 -1.796875 5.578125 -1.796875 C 6.160156 -1.796875 6.648438 -1.945312 7.046875 -2.25 C 7.453125 -2.550781 7.707031 -2.976562 7.8125 -3.53125 L 10.03125 -3.53125 C 9.957031 -2.894531 9.734375 -2.296875 9.359375 -1.734375 C 8.984375 -1.179688 8.472656 -0.726562 7.828125 -0.375 C 7.191406 -0.03125 6.429688 0.140625 5.546875 0.140625 C 4.617188 0.140625 3.789062 -0.0664062 3.0625 -0.484375 C 2.332031 -0.898438 1.757812 -1.503906 1.34375 -2.296875 C 0.925781 -3.085938 0.71875 -4.046875 0.71875 -5.171875 C 0.71875 -6.304688 0.925781 -7.269531 1.34375 -8.0625 C 1.769531 -8.851562 2.347656 -9.457031 3.078125 -9.875 C 3.804688 -10.289062 4.628906 -10.5 5.546875 -10.5 C 6.335938 -10.5 7.050781 -10.347656 7.6875 -10.046875 C 8.332031 -9.753906 8.859375 -9.328125 9.265625 -8.765625 C 9.679688 -8.203125 9.9375 -7.523438 10.03125 -6.734375 Z M 10.03125 -6.734375 "/></g></g><g style="fill:#6c757d;fill-opacity:1;"><g transform="translate(284.876502, 90.086474)"><path style="stroke:none" d="M 3.09375 -10.359375 L 3.09375 0 L 0.90625 0 L 0.90625 -10.359375 Z M 3.09375 -10.359375 "/></g></g><g style="fill:#6c757d;fill-opacity:1;"><g transform="translate(288.869072, 90.086474)"><path style="stroke:none" d="M 10.40625 -5.171875 C 10.40625 -4.046875 10.191406 -3.085938 9.765625 -2.296875 C 9.347656 -1.503906 8.769531 -0.898438 8.03125 -0.484375 C 7.300781 -0.0664062 6.476562 0.140625 5.5625 0.140625 C 4.644531 0.140625 3.816406 -0.0664062 3.078125 -0.484375 C 2.347656 -0.898438 1.769531 -1.503906 1.34375 -2.296875 C 0.925781 -3.097656 0.71875 -4.054688 0.71875 -5.171875 C 0.71875 -6.304688 0.925781 -7.269531 1.34375 -8.0625 C 1.769531 -8.851562 2.347656 -9.457031 3.078125 -9.875 C 3.816406 -10.289062 4.644531 -10.5 5.5625 -10.5 C 6.476562 -10.5 7.300781 -10.289062 8.03125 -9.875 C 8.769531 -9.457031 9.347656 -8.851562 9.765625 -8.0625 C 10.191406 -7.269531 10.40625 -6.304688 10.40625 -5.171875 Z M 8.1875 -5.171875 C 8.1875 -6.273438 7.945312 -7.113281 7.46875 -7.6875 C 7 -8.269531 6.363281 -8.5625 5.5625 -8.5625 C 4.769531 -8.5625 4.132812 -8.269531 3.65625 -7.6875 C 3.175781 -7.113281 2.9375 -6.273438 2.9375 -5.171875 C 2.9375 -4.078125 3.175781 -3.238281 3.65625 -2.65625 C 4.132812 -2.082031 4.769531 -1.796875 5.5625 -1.796875 C 6.363281 -1.796875 7 -2.082031 7.46875 -2.65625 C 7.945312 -3.238281 8.1875 -4.078125 8.1875 -5.171875 Z M 8.1875 -5.171875 "/></g></g></g></svg>