<svg version="1.0" xmlns="http://www.w3.org/2000/svg" width="512" height="512" viewBox="0 0 512 512">
  <g transform="translate(0,512) scale(0.1,-0.1)" fill="#0D1B2A" stroke="none">
    <!-- Simplified Balety logo shape for Safari pinned tab -->
    <path d="M1280 4608 c-88 -47 -160 -133 -160 -191 0 -23 7 -27 45 -27 25 0 45 5 45 10 0 6 18 10 40 10 22 0 40 -4 40 -10 0 -5 20 -10 45 -10 38 0 45 4 45 27 0 58 -72 144 -160 191 -30 16 -30 16 -60 0z"/>
    <path d="M2560 4608 c-88 -47 -160 -133 -160 -191 0 -23 7 -27 45 -27 25 0 45 5 45 10 0 6 18 10 40 10 22 0 40 -4 40 -10 0 -5 20 -10 45 -10 38 0 45 4 45 27 0 58 -72 144 -160 191 -30 16 -30 16 -60 0z"/>
    <path d="M3840 4608 c-88 -47 -160 -133 -160 -191 0 -23 7 -27 45 -27 25 0 45 5 45 10 0 6 18 10 40 10 22 0 40 -4 40 -10 0 -5 20 -10 45 -10 38 0 45 4 45 27 0 58 -72 144 -160 191 -30 16 -30 16 -60 0z"/>
    <rect x="1200" y="3200" width="2400" height="800" rx="100"/>
    <rect x="1600" y="2000" width="1600" height="600" rx="100"/>
    <rect x="2000" y="800" width="800" height="600" rx="100"/>
  </g>
</svg>
